PathFileType	4	(x/y/z)	S09_PSF_T14
DataRate	CameraRate	NumFrames	NumMarkers	Units	OrigDataRate	OrigDataStartFrame	OrigNumFrames
240	240	10	51	mm	240	1	444
Frame#	Time	Sternum			R.Acromium			L.Acromium			Top.Head			R.ASIS			L.ASIS			R.PSIS			L.PSIS			R.Great.Tro			L.Great.Tro			R.Iliac.Crest			L.Iliac.Crest			V.Sacral			R.Thigh.Upper.Post			R.Thigh.Lower.Ant			R.Thigh.Lower.Post			R.Thigh.Upper.Ant			R.Knee.Lat			R.Knee.Med			R.Shank.Upper.Post			R.Shank.Lower.Ant			R.Shank.Lower.Post			R.Shank.Upper.Ant			R.Ankle.Lat			R.Ankle.Med			R.Heel.Upper			R.Heel.Med			R.Heel.Lat			R.Toe.Lat			R.Toe.Med			R.Toe.Tip			L.Thigh.Upper.Post			L.Thigh.Lower.Ant			L.Thigh.Lower.Post			L.Thigh.Upper.Ant			L.Knee.Lat			L.Knee.Med			L.Shank.Upper.Post			L.Shank.Lower.Ant			L.Shank.Lower.Post			L.Shank.Upper.Ant			L.Ankle.Lat			L.Ankle.Med			L.Heel.Upper			L.Heel.Med			L.Heel.Lat			L.Toe.Lat			L.Toe.Med			L.Toe.Tip			Cervical.Spine			Back			
		X1	Y1	Z1	X2	Y2	Z2	X3	Y3	Z3	X4	Y4	Z4	X5	Y5	Z5	X6	Y6	Z6	X7	Y7	Z7	X8	Y8	Z8	X9	Y9	Z9	X10	Y10	Z10	X11	Y11	Z11	X12	Y12	Z12	X13	Y13	Z13	X14	Y14	Z14	X15	Y15	Z15	X16	Y16	Z16	X17	Y17	Z17	X18	Y18	Z18	X19	Y19	Z19	X20	Y20	Z20	X21	Y21	Z21	X22	Y22	Z22	X23	Y23	Z23	X24	Y24	Z24	X25	Y25	Z25	X26	Y26	Z26	X27	Y27	Z27	X28	Y28	Z28	X29	Y29	Z29	X30	Y30	Z30	X31	Y31	Z31	X32	Y32	Z32	X33	Y33	Z33	X34	Y34	Z34	X35	Y35	Z35	X36	Y36	Z36	X37	Y37	Z37	X38	Y38	Z38	X39	Y39	Z39	X40	Y40	Z40	X41	Y41	Z41	X42	Y42	Z42	X43	Y43	Z43	X44	Y44	Z44	X45	Y45	Z45	X46	Y46	Z46	X47	Y47	Z47	X48	Y48	Z48	X49	Y49	Z49	X50	Y50	Z50	X51	Y51	Z51	

1	0	NaN	NaN	NaN	-1743.4	1419.5	503.17	-1752.3	1410.8	188.55	-1731.1	1721.1	335	NaN	NaN	NaN	NaN	NaN	NaN	-1878.7	1033.3	373.75	-1864.6	1025.7	285.31	-1760.1	922.72	537.4	-1717.7	917.15	146.53	-1759.9	1086.9	509.41	-1755.2	1096.3	183.87	-1890.3	993.95	324.94	-1826.2	682.16	498.02	-1805.4	571.57	463.46	NaN	NaN	NaN	NaN	NaN	NaN	-1840.7	502.31	446.72	NaN	NaN	NaN	-1982.1	375.21	444.72	-1942.9	291.07	431.7	-2017.4	308.25	430.68	NaN	NaN	NaN	NaN	NaN	NaN	-2049.9	143.29	326.61	-2147.7	124.64	355.72	-2143.7	89.476	328.33	-2153.2	95.425	391.74	-2001.5	50.493	447.62	-1949	46.596	343.04	-1900.6	51.599	390.9	-1685.7	646.91	193.84	-1587.2	585.36	186.79	-1642.8	569.48	212.43	-1628.3	661.23	162.93	-1562.2	510.1	201.99	-1546.8	525.09	338.36	-1538.8	369.72	195.08	-1439.2	322.16	200.62	-1501.3	302.47	200.75	-1477.4	389.48	194.74	-1375.4	134.54	222.75	-1349.2	153.42	310.64	NaN	NaN	NaN	NaN	NaN	NaN	-1385.1	37.963	258.74	-1253.5	133.15	178.85	-1220.7	176.81	281.02	-1198.9	212.96	213.35	-1824.1	1467.8	358.84	-1869.3	1198.2	348.6
2	0.0041667	NaN	NaN	NaN	-1738.2	1418.7	502.66	-1747	1410.2	188.11	-1726.2	1720.4	334.77	NaN	NaN	NaN	NaN	NaN	NaN	-1873.3	1032.5	373.24	-1858.9	1025.1	284.82	-1754.9	921.94	536.96	-1712.5	917.24	146.04	-1754.6	1086.2	509.09	-1749.6	1095.8	183.52	-1884.6	993.24	324.34	-1820.8	681.31	497.65	-1799.1	570.3	462.9	NaN	NaN	NaN	NaN	NaN	NaN	-1835.6	501.45	446.59	NaN	NaN	NaN	-1978.1	375.72	444.63	-1940	290.97	431.83	-2014.1	309.12	430.66	NaN	NaN	NaN	NaN	NaN	NaN	-2048.3	144.59	326.75	-2146.3	127	355.81	-2142.6	91.88	328.32	-2152.1	97.76	391.78	-2001.2	50.734	447.59	-1948.7	46.605	343.13	-1900.5	51.479	390.97	-1678.6	646.54	193.64	-1580.2	585.32	187.21	-1635.8	569.24	212.46	-1620.8	660.92	163.33	-1556.3	510.08	202.27	-1540.2	525.5	338.61	-1533.9	369.22	195.43	-1435	320.34	201.43	-1497.3	301.45	201.22	-1472.2	388.1	195.52	-1373.8	132.28	223.46	-1347.9	150.42	311.77	NaN	NaN	NaN	NaN	NaN	NaN	-1384.4	36.161	258.94	-1251.8	130.54	180	-1219.2	173.53	282.22	-1197	209.95	215.06	-1818.8	1467.2	358.4	-1864.1	1197.5	348.2
3	0.0083333	NaN	NaN	NaN	-1732.7	1417.9	502.11	-1741.5	1409.7	187.64	-1721.1	1719.8	334.52	NaN	NaN	NaN	NaN	NaN	NaN	-1867.5	1031.8	372.71	-1853	1024.4	284.3	-1749.4	921.13	536.5	-1707.2	917.39	145.47	-1749	1085.4	508.75	-1743.8	1095.4	183.15	-1878.6	992.5	323.72	-1815.2	680.42	497.26	-1792.4	568.98	462.33	NaN	NaN	NaN	NaN	NaN	NaN	-1830.2	500.55	446.47	NaN	NaN	NaN	-1973.8	376.26	444.55	-1936.9	290.9	431.96	-2010.6	310.04	430.66	NaN	NaN	NaN	NaN	NaN	NaN	-2046.7	145.97	326.9	-2144.8	129.51	355.89	-2141.5	94.443	328.3	-2150.9	100.26	391.82	-2000.9	50.995	447.55	-1948.3	46.61	343.22	-1900.4	51.355	391.03	-1671.3	646.14	193.44	-1572.8	585.23	187.7	-1628.6	568.98	212.5	-1612.9	660.58	163.76	-1550.3	510.07	202.55	-1533.3	525.87	338.88	-1528.7	368.69	195.77	-1430.5	318.49	202.27	-1493.1	300.4	201.68	-1466.8	386.69	196.33	-1372.1	130	224.17	-1346.6	147.37	312.91	NaN	NaN	NaN	NaN	NaN	NaN	-1383.6	34.405	259.15	-1249.9	127.84	181.18	-1217.6	170.13	283.47	-1195	206.81	216.8	-1813.3	1466.5	357.93	-1858.5	1196.8	347.78
4	0.0125	NaN	NaN	NaN	-1727.1	1417.1	501.54	-1735.8	1409.1	187.16	-1715.7	1719.1	334.27	NaN	NaN	NaN	NaN	NaN	NaN	-1861.6	1031	372.14	-1846.8	1023.6	283.75	-1743.8	920.3	536.02	-1701.9	917.62	144.8	-1743.2	1084.5	508.39	-1737.7	1094.9	182.76	-1872.4	991.74	323.06	-1809.3	679.49	496.86	-1785.6	567.62	461.77	NaN	NaN	NaN	NaN	NaN	NaN	-1824.6	499.61	446.37	NaN	NaN	NaN	-1969.3	376.83	444.49	-1933.6	290.86	432.09	-2006.9	311.01	430.67	NaN	NaN	NaN	NaN	NaN	NaN	-2044.9	147.42	327.06	-2143.1	132.16	355.98	-2140.2	97.162	328.27	-2149.6	102.91	391.83	-2000.5	51.28	447.51	-1947.9	46.61	343.32	-1900.2	51.228	391.1	-1663.7	645.72	193.23	-1565.1	585.08	188.25	-1621.2	568.7	212.55	-1604.9	660.22	164.22	-1544.2	510.07	202.84	-1526.2	526.2	339.15	-1523.4	368.14	196.1	-1425.8	316.61	203.13	-1488.7	299.34	202.14	-1461.2	385.26	197.15	-1370.3	127.73	224.9	-1345.1	144.3	314.05	NaN	NaN	NaN	NaN	NaN	NaN	-1382.7	32.731	259.37	-1248	125.08	182.37	-1215.8	166.64	284.75	-1192.8	203.57	218.54	-1807.6	1465.8	357.45	-1852.8	1196	347.34
5	0.016667	NaN	NaN	NaN	-1721.3	1416.2	500.95	-1729.9	1408.5	186.66	-1710.2	1718.4	334	NaN	NaN	NaN	NaN	NaN	NaN	-1855.4	1030.2	371.55	-1840.4	1022.9	283.17	-1737.9	919.45	535.51	-1696.7	917.93	144.04	-1737.2	1083.7	508.01	-1731.5	1094.4	182.35	-1865.9	990.96	322.38	-1803.1	678.54	496.45	-1778.5	566.24	461.24	NaN	NaN	NaN	NaN	NaN	NaN	-1818.7	498.62	446.28	NaN	NaN	NaN	-1964.6	377.44	444.44	-1930.1	290.87	432.21	-2003.1	312.02	430.69	NaN	NaN	NaN	NaN	NaN	NaN	-2043	148.95	327.23	-2141.4	134.96	356.06	-2138.9	100.04	328.22	-2148.2	105.73	391.84	-2000.1	51.591	447.45	-1947.5	46.605	343.42	-1900.1	51.099	391.16	-1656.1	645.3	193.04	-1557.2	584.85	188.86	-1613.6	568.38	212.6	-1596.7	659.83	164.68	-1538	510.07	203.14	-1519	526.46	339.43	-1517.8	367.58	196.42	-1421	314.72	203.99	-1484.2	298.27	202.59	-1455.5	383.82	197.98	-1368.3	125.49	225.62	-1343.4	141.24	315.17	NaN	NaN	NaN	NaN	NaN	NaN	-1381.9	31.176	259.58	-1246.1	122.27	183.56	-1214	163.08	286.05	-1190.5	200.24	220.27	-1801.7	1465	356.95	-1846.9	1195.2	346.87
6	0.020833	NaN	NaN	NaN	-1715.4	1415.4	500.34	-1723.9	1407.9	186.15	-1704.6	1717.7	333.73	NaN	NaN	NaN	NaN	NaN	NaN	-1849.1	1029.4	370.93	-1833.8	1022.1	282.57	-1731.9	918.59	534.98	-1691.6	918.33	143.17	-1731.1	1082.8	507.61	-1725.1	1093.9	181.92	-1859.4	990.17	321.68	-1796.8	677.56	496.03	-1771.3	564.86	460.73	NaN	NaN	NaN	NaN	NaN	NaN	-1812.5	497.59	446.21	NaN	NaN	NaN	-1959.6	378.07	444.42	-1926.3	290.92	432.32	-1999	313.08	430.74	NaN	NaN	NaN	NaN	NaN	NaN	-2041	150.54	327.42	-2139.5	137.91	356.13	-2137.4	103.07	328.16	-2146.6	108.7	391.82	-1999.7	51.93	447.39	-1947	46.595	343.53	-1899.9	50.969	391.21	-1648.3	644.86	192.84	-1549	584.55	189.52	-1606	568.05	212.65	-1588.4	659.42	165.17	-1531.9	510.07	203.43	-1511.7	526.64	339.7	-1512.2	367.01	196.72	-1416	312.86	204.86	-1479.5	297.21	203.01	-1449.7	382.38	198.82	-1366.3	123.31	226.33	-1341.7	138.23	316.27	NaN	NaN	NaN	NaN	NaN	NaN	-1381	29.769	259.79	-1244	119.45	184.75	-1212	159.47	287.37	-1188	196.82	221.97	-1795.8	1464.3	356.43	-1840.9	1194.4	346.37
7	0.025	NaN	NaN	NaN	-1709.5	1414.5	499.71	-1717.8	1407.4	185.62	-1699	1716.9	333.45	NaN	NaN	NaN	NaN	NaN	NaN	-1842.6	1028.5	370.29	-1827.1	1021.4	281.95	-1725.7	917.71	534.44	-1686.6	918.81	142.21	-1724.8	1082	507.2	-1718.6	1093.4	181.46	-1852.6	989.37	320.95	-1790.3	676.56	495.6	-1763.9	563.47	460.27	NaN	NaN	NaN	NaN	NaN	NaN	-1806.2	496.53	446.17	NaN	NaN	NaN	-1954.4	378.73	444.42	-1922.4	291.03	432.44	-1994.7	314.19	430.8	NaN	NaN	NaN	NaN	NaN	NaN	-2038.8	152.19	327.63	-2137.5	141	356.2	-2135.8	106.25	328.08	-2144.9	111.85	391.79	-1999.2	52.302	447.31	-1946.6	46.58	343.63	-1899.7	50.841	391.26	-1640.4	644.42	192.64	-1540.6	584.18	190.24	-1598.3	567.69	212.7	-1580	659	165.66	-1525.9	510.08	203.72	-1504.4	526.74	339.96	-1506.4	366.43	197	-1411	311.02	205.73	-1474.7	296.16	203.42	-1443.7	380.97	199.65	-1364.1	121.23	227.03	-1339.8	135.28	317.33	NaN	NaN	NaN	NaN	NaN	NaN	-1380.1	28.535	259.99	-1242	116.61	185.93	-1209.9	155.82	288.69	-1185.4	193.34	223.63	-1789.8	1463.5	355.89	-1834.7	1193.6	345.85
8	0.029167	NaN	NaN	NaN	-1703.4	1413.7	499.07	-1711.7	1406.8	185.08	-1693.2	1716.2	333.16	NaN	NaN	NaN	NaN	NaN	NaN	-1836	1027.7	369.62	-1820.3	1020.6	281.3	-1719.4	916.83	533.87	-1681.6	919.36	141.17	-1718.4	1081.1	506.76	-1712	1092.9	180.99	-1845.8	988.56	320.2	-1783.6	675.54	495.18	-1756.4	562.09	459.85	NaN	NaN	NaN	NaN	NaN	NaN	-1799.6	495.44	446.17	NaN	NaN	NaN	-1948.9	379.42	444.45	-1918.3	291.2	432.56	-1990.3	315.33	430.9	NaN	NaN	NaN	NaN	NaN	NaN	-2036.5	153.91	327.85	-2135.3	144.23	356.27	-2134	109.59	327.99	-2143	115.16	391.73	-1998.7	52.71	447.23	-1946.1	46.561	343.74	-1899.6	50.717	391.3	-1632.6	643.98	192.45	-1532.1	583.74	190.98	-1590.6	567.31	212.75	-1571.6	658.55	166.16	-1519.8	510.08	204.01	-1497.1	526.75	340.2	-1500.5	365.85	197.25	-1405.9	309.24	206.59	-1469.8	295.15	203.79	-1437.7	379.6	200.47	-1361.8	119.24	227.71	-1337.7	132.42	318.35	NaN	NaN	NaN	NaN	NaN	NaN	-1379.2	27.489	260.2	-1239.8	113.78	187.1	-1207.6	152.15	290.01	-1182.7	189.79	225.24	-1783.7	1462.7	355.34	-1828.4	1192.7	345.3
9	0.033333	NaN	NaN	NaN	-1697.4	1412.8	498.41	-1705.4	1406.2	184.52	-1687.4	1715.6	332.87	NaN	NaN	NaN	NaN	NaN	NaN	-1829.3	1026.9	368.93	-1813.3	1019.9	280.62	-1713	915.96	533.29	-1676.7	919.95	140.08	-1711.9	1080.3	506.31	-1705.3	1092.3	180.5	-1838.9	987.75	319.43	-1776.7	674.52	494.76	-1748.7	560.72	459.48	NaN	NaN	NaN	NaN	NaN	NaN	-1792.9	494.33	446.2	NaN	NaN	NaN	-1943.3	380.13	444.53	-1914	291.43	432.68	-1985.6	316.51	431.02	NaN	NaN	NaN	NaN	NaN	NaN	-2034	155.68	328.1	-2133	147.6	356.32	-2132.1	113.09	327.87	-2140.9	118.64	391.65	-1998.2	53.159	447.13	-1945.5	46.539	343.86	-1899.4	50.598	391.33	-1624.8	643.54	192.25	-1523.6	583.24	191.75	-1583	566.92	212.78	-1563.2	658.08	166.65	-1513.9	510.09	204.31	-1489.8	526.67	340.42	-1494.5	365.28	197.46	-1400.6	307.53	207.44	-1464.7	294.16	204.13	-1431.6	378.27	201.26	-1359.3	117.37	228.36	-1335.5	129.67	319.33	NaN	NaN	NaN	NaN	NaN	NaN	-1378.3	26.64	260.39	-1237.7	110.97	188.24	-1205.3	148.45	291.33	-1179.8	186.18	226.8	-1777.6	1462	354.78	-1822.1	1191.9	344.72
10	0.0375	NaN	NaN	NaN	-1691.3	1412	497.75	-1699.2	1405.6	183.96	-1681.5	1714.9	332.58	NaN	NaN	NaN	NaN	NaN	NaN	-1822.5	1026	368.22	-1806.3	1019.1	279.92	-1706.6	915.08	532.7	-1671.7	920.56	138.95	-1705.3	1079.4	505.84	-1698.5	1091.8	179.99	-1831.9	986.94	318.65	-1769.8	673.48	494.34	-1741	559.36	459.17	NaN	NaN	NaN	NaN	NaN	NaN	-1785.9	493.19	446.29	NaN	NaN	NaN	-1937.4	380.87	444.65	-1909.6	291.71	432.83	-1980.8	317.74	431.16	NaN	NaN	NaN	NaN	NaN	NaN	-2031.3	157.51	328.37	-2130.5	151.12	356.38	-2129.9	116.75	327.75	-2138.7	122.3	391.55	-1997.7	53.655	447.03	-1945	46.516	343.97	-1899.2	50.486	391.36	-1617	643.11	192.05	-1515.1	582.69	192.52	-1575.4	566.51	212.8	-1554.8	657.6	167.15	-1508	510.09	204.61	-1482.6	526.48	340.6	-1488.5	364.73	197.65	-1395.3	305.9	208.27	-1459.6	293.23	204.44	-1425.5	377	202.04	-1356.8	115.63	229	-1333.2	127.05	320.25	NaN	NaN	NaN	NaN	NaN	NaN	-1377.4	25.993	260.58	-1235.4	108.17	189.37	-1202.8	144.72	292.63	-1176.8	182.52	228.31	-1771.5	1461.2	354.2	-1815.6	1191	344.11
